<?xml version="1.0" encoding="iso-8859-1"?>
<svg version="1.1" id="Capa_1" xmlns="http://www.w3.org/2000/svg" xmlns:xlink="http://www.w3.org/1999/xlink" x="0px" y="0px"
	 viewBox="0 0 512 512" style="enable-background:new 0 0 512 512;" xml:space="preserve">
		<path d="M475.688,99.253H36.312C15.953,99.253,0,115.206,0,135.565v311.679c0,20.359,15.953,36.312,36.312,36.312h439.376
			c20.359,0,36.312-15.953,36.312-36.312V135.565C512,115.206,496.047,99.253,475.688,99.253z M475.688,447.243H36.312
			l-0.278-311.654c0,0,0.085-0.024,0.278-0.024h439.376V447.243z" fill="currentColor"/>
		<rect x="18.156" y="226.95" width="475.688" height="36.312" fill="currentColor"/>
		<path d="M301.995,245.106v67.177h-91.991v-67.177h-36.312v85.333c0,10.028,8.128,18.156,18.156,18.156h128.303
			c10.034,0,18.156-8.128,18.156-18.156v-85.333H301.995z" fill="currentColor"/>
		<path d="M324.388,28.444H187.612c-23.361,0-42.364,19.003-42.364,42.364v46.6h36.312v-46.6c0-3.28,2.772-6.052,6.052-6.052
			h136.775c3.28,0,6.052,2.772,6.052,6.052v46.6h36.312v-46.6C366.752,47.448,347.742,28.444,324.388,28.444z" fill="currentColor"/>
</svg>
